<?xml version="1.0" encoding="utf-8"?>
<!-- Generator: Adobe Illustrator 24.0.0, SVG Export Plug-In . SVG Version: 6.00 Build 0)  -->
<svg version="1.1" id="Layer_1" xmlns="http://www.w3.org/2000/svg" xmlns:xlink="http://www.w3.org/1999/xlink" x="0px" y="0px"
	 viewBox="0 0 612 792" style="enable-background:new 0 0 612 792;" xml:space="preserve">
<style type="text/css">
	.st0{fill:#F9ED32;}
	.st1{fill:#FFFFFF;}
	.st2{fill:#ED1C24;}
</style>
<path d="M472.21,156.76c0-3.9,0-7.81,0-12.14c8.14,0,16.04,0,24.23,0c0-4.16,0-7.91,0-12.08c8.18,0,16.08,0,24.53,0
	c0-4.42,0-8.42,0-12.42c8.4,0,16.81,0,25.21,0c0,16.1,0,32.21,0,48.62c-4.05,0-7.8,0-11.99,0c0,8.2,0,16.11,0,24.47
	c-4.28,0-8.12,0-12.26,0c0,4.18,0,7.93,0,12.13c-4.13,0-7.98,0-12.27,0c0,4.28,0,8.13,0,12.27c-4.18,0-7.93,0-12.12,0
	c0,4.14,0,7.98,0,12.27c-4.28,0-8.13,0-12.27,0c0,4.18,0,7.93,0,12.13c-4.13,0-7.98,0-12.06,0c0,12.42,0,24.4,0,36.68
	c3.89,0,7.63,0,11.82,0c0,12.27,0,24.25,0,36.53c4.18,0,7.92,0,12,0c0,16.34,0,32.38,0,48.87c-3.74,0-7.59,0-11.73,0
	c0,8.26,0,16.07,0,24.33c-4.13,0-7.98,0-12.07,0c0,4.29,0,8.13,0,12.28c3.83,0,7.58,0,11.77,0c0,16.34,0,32.38,0,48.87
	c4.27,0,8.12,0,12.16,0c0,28.59,0,56.73,0,85.32c-3.82,0-7.67,0-11.81,0c0,8.25,0,16.06,0,24.33c-4.13,0-7.97,0-12.26,0
	c0,4.28,0,8.13,0,12.27c-4.18,0-7.93,0-11.99,0c0,4.13,0,7.98,0,12.28c3.74,0,7.59,0,11.65,0c0,8.25,0,16.06,0,24.18
	c-20.32,0-40.68,0-61.5,0c0-3.82,0-7.67,0-11.8c-4.18,0-7.93,0-12.23,0c0-4.3,0-8.31,0-12.31l-0.09,0.09c8.07,0,16.15,0,24.74,0
	c0,4.11,0,7.94,0,11.76c12.26,0,23.99,0,35.87,0c0-3.92,0-7.63,0-11.85c-4.09,0-7.93,0-11.6,0c0-4.39,0-8.25,0-12.47
	c4.06,0,7.8,0,12.04,0c0-4.21,0-8.04,0-12.23c4.25,0,7.99,0,12.23,0c0-8.27,0-16.18,0-24.43c4.25,0,7.99,0,11.68,0
	c0-28.48,0-56.58,0-85.05c-4.05,0-7.78,0-12.01,0c0-16.4,0-32.43,0-48.83c-4.24,0-7.98,0-11.83,0c0-4.23,0-8.09,0-12.46
	c4.06,0,7.9,0,12.16,0c0-8.36,0-16.2,0-24.04c3.87,0,7.75,0,11.74,0c0-4.45,0-8.15,0-11.9c-3.97,0-7.67,0-11.61,0
	c0,4.23,0,8.14,0,12.05c-8.06,0-16.12,0-24.75,0c0-4.49,0-8.31,0-12.54c-4.29,0-8.01,0-11.76,0c0-8.32,0-16.2,0-24.51
	c4.04,0,7.76,0,12.04,0c0-4.24,0-8.06,0-12.25c8.54,0,16.5,0,24.46,0c0,4.01,0,8.02,0,12.02c4.26,0,7.96,0,11.55,0
	c0-4.05,0-7.75,0-11.88c-4.12,0-7.89,0-11.67,0c0-12,0-24.01,0-36.52c-4.52,0-8.36,0-12.18,0c0-12.56,0-24.61,0-36.65l-0.09,0.09
	c3.98,0,7.96,0,12.3,0c0-4.63,0-8.36,0-12.45c4.1,0,7.83,0,12.07,0c0-4.19,0-8.02,0-12.21c4.24,0,7.97,0,12.21,0
	c0-4.19,0-8.03,0-12.21c4.24,0,7.97,0,11.87,0c0-16.26,0-32.14,0-48.64c-12.24,0-24.24,0-36.24,0L472.21,156.76z"/>
<path d="M94,254.35c4.17,0,8.35,0,12.82,0c0,4.06,0,7.8,0,12c4.13,0,7.97,0,12.26,0c0,4.28,0,8.12,0,12.27c4.18,0,7.93,0,12.12,0
	c0,4.13,0,7.98,0,12.27c4.27,0,8.12,0,12.26,0c0,4.18,0,7.93,0,12.12c4.13,0,7.97,0,12.26,0c0,4.27,0,8.13,0,12.27
	c4.18,0,7.93,0,12.12,0c0,4.13,0,7.98,0,12.27c4.28,0,8.13,0,12.26,0c0,4.18,0,7.93,0,12.12c4.13,0,7.98,0,12.12,0
	c0,4.18,0,7.93,0,12.12c4.13,0,7.97,0,12.26,0c0,4.28,0,8.12,0,12.19c3.91,0,7.39,0,11.31,0c0-15.93,0-31.97,0-48.56
	c4.43,0,8.44,0,12.44,0l-0.09-0.09c0,16.15,0,32.29,0,48.8c4.54,0,8.26,0,12.33,0c0,8.43,0,16.49,0,24.56c-3.73,0-7.47,0-11.19,0
	c0,4.25,0,8.09,0,12.04c3.92,0,7.56,0,11.19,0c0,3.98,0,7.97,0,12.3c4.48,0,8.21,0,12.07,0c0,4.21,0,8.06,0,12.41
	c-4.03,0-7.86,0-12.18,0c0,4.33,0,8.16,0,11.93c-4.41,0-8.31,0-12.22,0l0.1,0.1c0-12.13,0-24.25,0-36.38c-4.1,0-7.66,0-11.66,0
	c0,4.12,0,7.96,0,12.08c-4.18,0-7.92,0-12.09,0c0,4.13,0,7.97,0,12.13c-4.61,0-8.79,0-12.96,0c0-4.02,0-8.04,0-12.57
	c4.23,0,8.07,0,12.26,0c0-4.25,0-7.99,0-12.23c4.2,0,8.03,0,11.82,0c0-8.2,0-15.87,0-24.06c-4.05,0-7.89,0-12.08,0
	c0-4.25,0-7.99,0-12.23c-4.2,0-8.03,0-12.23,0c0-4.25,0-7.99,0-12.23c-4.2,0-8.04,0-12.23,0c0-4.25,0-7.99,0-12.23
	c-4.2,0-8.04,0-12.23,0c0-4.25,0-7.99,0-12.09c-4.1,0-7.84,0-12.08,0c0-4.2,0-8.04,0-12.23c-4.25,0-7.99,0-12.23,0
	c0-4.2,0-8.04,0-12.23c-4.25,0-7.99,0-12.23,0c0-4.2,0-8.04,0-12.23c-4.25,0-7.99,0-12.22,0c0-4.2,0-8.04,0-11.79
	c-4.13,0-7.74,0-11.71,0c0,1.83,0,3.42,0,5.02c0,33.2,0.01,66.4-0.01,99.6c0,1.62-0.14,3.24-0.22,4.86l0.09-0.09
	c-4.08,0.01-8.15,0.03-12.23,0.04C94,343.84,94,299.1,94,254.35z"/>
<path d="M240.42,559.4c-3.91,0-7.81,0-12.17,0c0-4.1,0-7.95,0-12.09c-8.26,0-16.07,0-24.32,0c0-4.14,0-7.98,0-12.13
	c-8.25,0-16.06,0-24.32,0c0-4.14,0-7.98,0-12.27c-4.28,0-8.13,0-12.27,0c0-4.18,0-7.93,0-12.13c-4.14,0-7.98,0-12.07,0
	c0-4.18,0-7.92,0-12.12c3.7,0,7.54,0,11.97,0c0-4.45,0-8.46,0-12.47l-0.09,0.09c4.01,0,8.01,0,12.49,0c0,4.12,0,7.96,0,11.86
	c4.19,0,7.89,0,12.1,0c0-4.03,0-7.75,0-12c4.21,0,7.91,0,11.79,0c0-12.38,0-24.21,0-36.55c-4.26,0-8.09,0-12.02,0
	c0-4.43,0-8.35,0-12.27c4.28,0,8.55,0,13.26,0c0,4.47,0,8.31,0,12.09c3.92,0,7.39,0,11.3,0c0-4.04,0-7.89,0-11.96
	c4.35,0,8.25,0,12.16,0l-0.1-0.1c0.08,1.62,0.22,3.23,0.22,4.85c0.01,29.22,0.01,58.44,0.01,87.66c0,1.57,0,3.14,0,5.21
	c4.37,0,8.2,0,11.98,0c0,8.48,0,16.45,0,24.42L240.42,559.4z"/>
<path d="M399.02,583.81c-23.96,0-47.92,0-72.34,0c0,4.1,0,7.95,0,12.09c-8.25,0-16.06,0-24.32,0c0,4.13,0,7.98,0,12.08
	c-20.81,0-41.18,0-61.75,0c0-7.92,0-15.73,0-24.09c4,0,8.01,0,12.01,0l-0.09-0.09c0,3.89,0,7.78,0,11.82c12.48,0,24.32,0,36.68,0
	c0-4.09,0-7.93,0-12.12c8.32,0,16.13,0,24.29,0c0-4.11,0-7.85,0-11.68c28.73,0,57.07,0,85.42,0c0,4.26,0,8.17,0,12.09L399.02,583.81
	z"/>
<path d="M130.63,449.57c-3.89,0-7.78,0-11.94,0c0-8.08,0-15.95,0-24.33c3.97,0,7.95,0,11.94,0l-0.09-0.09c0,8.17,0,16.34,0,24.52
	L130.63,449.57z"/>
<path d="M130.63,425.24c0-4.09,0-8.18,0.01-12.27l-0.09,0.09c4,0,8.01,0,12.07,0c0,4.23,0,8.17,0,12.09c-4.26,0-8.17,0-12.07,0
	L130.63,425.24z"/>
<path d="M118.43,400.76c-3.89,0-7.79,0-12.2,0c0-4.22,0-8.21,0-12.2c0,0-0.09,0.09-0.09,0.09c3.99,0,7.98,0,12.2,0
	c0,4.22,0,8.21,0,12.2L118.43,400.76z"/>
<path d="M142.83,461.77c-3.89,0-7.79,0-12.2,0c0-4.22,0-8.21,0-12.2c0,0-0.09,0.09-0.09,0.09c3.99,0,7.98,0,12.2,0
	c0,4.22,0,8.21,0,12.2L142.83,461.77z"/>
<path d="M155.03,473.98c-3.89,0-7.79,0-12.2,0c0-4.22,0-8.21,0-12.2c0,0-0.09,0.09-0.09,0.09c3.99,0,7.98,0,12.2,0
	c0,4.22,0,8.21,0,12.2L155.03,473.98z"/>
<path d="M167.23,486.19c-3.89,0-7.79,0-12.21,0c0-4.22,0-8.21,0-12.21l-0.09,0.09c3.99,0,7.98,0,12.2,0c0,4.22,0,8.21,0,12.2
	L167.23,486.19z"/>
<path d="M252.62,571.6c-3.89,0-7.79,0-12.2,0c0-4.22,0-8.21,0-12.2c0,0-0.09,0.09-0.09,0.09c3.99,0,7.98,0,12.2,0
	c0,4.22,0,8.21,0,12.2L252.62,571.6z"/>
<path d="M252.62,583.88c0-4.09,0-8.19,0-12.28c0,0-0.09,0.09-0.09,0.09c4,0,8.01,0,12.07,0c0,4.23,0,8.17,0,12.09
	c-4.26,0-8.16,0-12.07,0L252.62,583.88z"/>
<path d="M130.63,412.97c-3.89,0-7.79,0-12.2,0c0-4.22,0-8.21,0-12.21l-0.09,0.09c3.99,0,7.98,0,12.2,0c0,4.22,0,8.21,0,12.2
	L130.63,412.97z"/>
<path d="M216.02,242.11c-7.97,0-15.93,0-24.34,0c0-4.08,0-7.93,0-12.06c-4.18,0-7.92,0-12.11,0c0-4.13,0-7.97,0-12.26
	c-4.27,0-8.12,0-12.25,0c0-4.18,0-7.92,0-12.11c-4.13,0-7.97,0-12.25,0c0-4.27,0-8.12,0-12.25c-8.25,0-16.05,0-24.15,0
	c0-8.19,0-16.09,0-24.24c24.42,0,48.84,0,73.56,0c0,3.86,0,7.61,0,11.79c16.32,0,32.35,0,48.82,0c0,4.26,0,8.11,0,12.23
	c16.37,0,32.3,0,48.68,0c0,4.12,0,7.96,0,12.37c4.17,0,7.9,0,11.64,0c0,0-0.09-0.09-0.09-0.09c0,4.01,0,8.02,0,12.07
	c-4.24,0-8.19,0-12.49,0c0-4.09,0-7.83,0-12.05c-16.39,0-32.41,0-48.78,0c0-4.23,0-7.97,0-12.19c-16.39,0-32.4,0-48.78,0
	c0-4.23,0-7.97,0-11.72c-12.2,0-24.03,0-35.76,0c0,4.01,0,7.71,0,11.57c2.23,0,4.12,0,6.01,0c1.85,0,3.7,0,5.98,0
	c0,1.96,0,3.41,0,4.87c0.02,7.19,0.02,7.19,7,7.2c1.58,0,3.16,0,5.21,0c0,3.32,0.12,6.13-0.04,8.93c-0.13,2.45,0.72,3.45,3.24,3.31
	c2.79-0.16,5.6-0.04,8.88-0.04c0,4.32,0,8.17,0,12.52c4.31,0,8.14,0,11.95,0c0,4.43,0,8.34,0,12.25L216.02,242.11z"/>
<path d="M313.62,205.58c0-3.91,0-7.82,0-11.97c28.68,0,57.08,0,85.94,0c0,3.7,0,7.55,0,11.97c4.18,0,7.91,0,11.65,0l-0.09-0.09
	c0,4.01,0,8.01,0,12.07c-4.23,0-8.18,0-12.48,0c0-4.09,0-7.82,0-11.85c-1.83,0-3.3,0-4.76,0c-18.67,0-37.34,0.02-56.01-0.01
	c-8.11-0.01-16.22-0.14-24.33-0.22L313.62,205.58z"/>
<path d="M228.22,315.41c0-12.02,0-24.05,0-36.61c4.2,0,8.2,0,12.2,0l-0.09-0.09c0,12.22,0,24.43,0,36.61c-4.39,0-8.3,0-12.2,0
	L228.22,315.41z"/>
<path d="M240.42,254.31c-7.96,0-15.91,0-24.4,0c0-4.21,0-8.21,0-12.2c0,0-0.09,0.09-0.09,0.09c8.15,0,16.3,0,24.4,0
	c0,4.4,0,8.3,0,12.2L240.42,254.31z"/>
<path d="M240.42,278.8c0-8.16,0-16.32,0-24.48c0,0-0.09,0.09-0.09,0.09c4.1-0.01,8.2-0.01,12.31-0.02l-0.09-0.09
	c0,8.15,0,16.31,0,24.4c-4.42,0-8.32,0-12.22,0L240.42,278.8z"/>
<path d="M411.21,205.58c0-3.9,0-7.8,0-12.2c8.29,0,16.34,0,24.4,0l-0.09-0.09c0,4,0,8,0,12.2c-8.3,0-16.35,0-24.4,0L411.21,205.58z"
	/>
<path d="M460.01,168.96c0-3.89,0-7.79,0-12.2c4.21,0,8.21,0,12.2,0c0,0-0.09-0.09-0.09-0.09c0,3.99,0,7.99,0,12.2
	c-4.22,0-8.21,0-12.2,0L460.01,168.96z"/>
<path d="M447.81,181.16c0-3.89,0-7.79,0-12.2c4.21,0,8.21,0,12.2,0c0,0-0.09-0.09-0.09-0.09c0,3.99,0,7.99,0,12.2
	c-4.22,0-8.21,0-12.2,0L447.81,181.16z"/>
<path d="M435.61,193.37c0-3.9,0-7.79,0-12.21c4.22,0,8.21,0,12.2,0l-0.09-0.09c0,3.99,0,7.99,0,12.2c-4.22,0-8.21,0-12.2,0
	L435.61,193.37z"/>
<path class="st0" d="M435.52,193.28c3.99,0,7.98,0,12.2,0c0-4.22,0-8.21,0-12.2c3.99,0,7.98,0,12.2,0c0-4.22,0-8.21,0-12.2
	c3.99,0,7.98,0,12.2,0c0-4.22,0-8.21,0-12.2c12,0,24.01,0,36.24,0c0,16.49,0,32.38,0,48.64c-3.9,0-7.63,0-11.87,0
	c0,4.19,0,8.02,0,12.21c-4.23,0-7.97,0-12.21,0c0,4.19,0,8.02,0,12.21c-4.23,0-7.97,0-12.07,0c0,4.09,0,7.82,0,12.45
	c-4.34,0-8.32,0-12.3,0c0-4.01,0-8.01,0-12.18c-4.16,0-8.01,0-11.98,0c0,4.18,0,8.13,0,12.09c4.25,0,8.15,0,12.06,0
	c0,12.04,0,24.09,0,36.65c3.83,0,7.66,0,12.18,0c0,12.52,0,24.52,0,36.52l0.13-0.14c-7.96,0-15.92,0-24.46,0c0,4.19,0,8.01,0,12.25
	c-4.28,0-8,0-12.04,0c0,8.31,0,16.19,0,24.51c3.75,0,7.47,0,11.76,0c0,4.23,0,8.05,0,12.54c8.63,0,16.69,0,24.75,0l-0.12-0.14
	c0,7.84,0,15.68,0,24.04c-4.26,0-8.1,0-12.16,0c0,4.37,0,8.23,0,12.46c3.85,0,7.58,0,11.83,0c0,16.39,0,32.43,0,48.83
	c4.23,0,7.97,0,12.01,0c0,28.48,0,56.57,0,85.05c-3.7,0-7.43,0-11.68,0c0,8.26,0,16.16,0,24.43c-4.24,0-7.97,0-12.23,0
	c0,4.19,0,8.03,0,12.23c-4.24,0-7.98,0-12.04,0c0,4.22,0,8.08,0,12.47c3.67,0,7.5,0,11.6,0c0,4.22,0,7.92,0,11.85
	c-11.88,0-23.61,0-35.87,0c0-3.81,0-7.65,0-11.76c-8.59,0-16.67,0-24.74,0c0-3.91,0-7.83,0-12.09c-28.35,0-56.7,0-85.42,0
	c0,3.83,0,7.57,0,11.68c-8.16,0-15.97,0-24.29,0c0,4.19,0,8.03,0,12.12c-12.36,0-24.19,0-36.68,0c0-4.05,0-7.94,0-11.82
	c3.91,0,7.81,0,12.07,0c0-3.92,0-7.87,0-12.09c-4.06,0-8.07,0-12.07,0c0-3.99,0-7.98,0-12.2c-4.22,0-8.21,0-12.2,0
	c0-7.97,0-15.94,0-24.42c-3.77,0-7.6,0-11.98,0c0-2.07,0-3.64,0-5.21c0-29.22,0.01-58.44-0.01-87.66c0-1.62-0.14-3.23-0.22-4.85
	c3.9,0,7.81,0,12.22,0c0-3.77,0-7.6,0-11.93c4.32,0,8.15,0,12.18,0c0-4.35,0-8.2,0-12.41c-3.86,0-7.58,0-12.07,0
	c0-4.33,0-8.31,0-12.3l-0.14,0.14c4.01,0,8.02,0,12.09,0c0-4.34,0-8.28,0-12.31c-4.26,0-8.17,0-12.09,0l0.14,0.14
	c0-8.07,0-16.13,0-24.56c-4.07,0-7.8,0-12.33,0c0-16.51,0-32.65,0-48.8c3.9,0,7.81,0,12.2,0c0-12.18,0-24.39,0-36.61
	c3.9,0,7.8,0,12.22,0c0-8.1,0-16.25,0-24.4c4.01,0,8.01,0,12.18,0c0-4.15,0-8.01,0-11.98c-4.18,0-8.13,0-12.09,0
	c0,4.25,0,8.16,0,12.07c-4.1,0.01-8.2,0.01-12.31,0.02c0-3.9,0-7.8,0-12.2c-8.1,0-16.25,0-24.4,0c0-3.91,0-7.82,0-12.25
	c-3.81,0-7.64,0-11.95,0c0-4.35,0-8.2,0-12.52c-3.27,0-6.08-0.13-8.88,0.04c-2.52,0.15-3.38-0.86-3.24-3.31
	c0.15-2.8,0.04-5.61,0.04-8.93c-2.05,0-3.63,0-5.21,0c-6.98-0.01-6.98-0.01-7-7.2c0-1.45,0-2.91,0-4.87c-2.28,0-4.13,0-5.98,0
	c-1.89,0-3.78,0-6.01,0c0-3.86,0-7.56,0-11.57c11.74,0,23.56,0,35.76,0c0,3.75,0,7.48,0,11.72c16.38,0,32.4,0,48.78,0
	c0,4.22,0,7.96,0,12.19c16.38,0,32.4,0,48.78,0c0,4.22,0,7.95,0,12.05c4.31,0,8.26,0,12.49,0c0-4.05,0-8.06,0-12.07
	c8.11,0.08,16.22,0.2,24.33,0.22c18.67,0.03,37.34,0.01,56.01,0.01c1.47,0,2.93,0,4.76,0c0,4.03,0,7.76,0,11.85
	c4.31,0,8.26,0,12.48,0c0-4.06,0-8.07,0-12.07c8.05,0,16.1,0,24.4,0C435.52,201.28,435.52,197.28,435.52,193.28z M325.73,352.01
	c0-4.01,0-8.02,0-12.18c-4.16,0-8.01,0-11.98,0c0,4.19,0,8.14,0,12.09c4.25,0,8.16,0,12.07,0c0,4.01,0,8.01,0,12.08
	c8.31,0,16.31,0,24.31,0c0-4.25,0-8.16,0-12.06c8.16-0.01,16.32-0.01,24.48-0.02c0,4.01,0,8.02,0,12.08c8.31,0,16.32,0,24.33,0
	c0-4.26,0-8.17,0-12.08c4.01,0,8.01,0,12.18,0c0-4.16,0-8.01,0-11.98c-4.18,0-8.13,0-12.09,0c0,4.25,0,8.16,0,12.07
	c-8.17,0-16.34,0-24.5,0c0-4,0-8.01,0-12.06c-8.3,0-16.31,0-24.31,0c0,4.26,0,8.17,0,12.08
	C342.05,352.03,333.89,352.02,325.73,352.01z M276.93,461.84c0-8.07,0-16.15,0-24.38c-4.15,0-8.01,0-11.98,0c0,8.25,0,16.27,0,24.3
	c4.25,0,8.16,0,12.07,0c0,8.15,0,16.3,0,24.42c4.42,0,8.32,0,12.22,0c0,3.99,0,7.97,0,12.19c4.21,0,8.19,0,12.18,0
	c0,4.01,0,8.01,0,12.08c8.31,0,16.31,0,24.32,0c0-4.25,0-8.16,0-12.06c4.01,0,8.02,0,12.07,0c0-16.45,0-32.6,0-48.75
	c-4.26,0-8.17,0-12.08,0c0-8.07,0-16.15,0-24.38c-4.15,0-8.01,0-11.98,0c0,8.25,0,16.27,0,24.3c4.25,0,8.16,0,12.07,0
	c0,16.31,0,32.61,0,48.92c-8.16-0.01-16.32-0.01-24.49-0.02c0-3.99,0-7.97,0-12.19c-4.21,0-8.19,0-12.18,0c0-8.15,0-16.3,0-24.42
	C284.73,461.84,280.83,461.84,276.93,461.84z M435.52,486.19c4,0,7.99,0,12.22,0c0-8.33,0-16.38,0-24.43c4.01,0,8.01,0,12.17,0
	c0-8.23,0-16.15,0-24.19c-4.18,0-8.13,0-12.09,0c0,8.32,0,16.29,0,24.27c-4,0-8,0-12.22,0c0,8.32,0,16.38,0,24.43
	c-3.98,0-7.97,0-12.18,0c0,4.21,0,8.2,0,12.18c-8.16,0.01-16.32,0.02-24.48,0.02c0-16.31,0-32.61,0-48.92c4.01,0,8.01,0,12.18,0
	c0-8.23,0-16.15,0-24.19c-4.19,0-8.13,0-12.09,0c0,8.32,0,16.29,0,24.27c-4.01,0-8.02,0-12.08,0c0,16.45,0,32.59,0,48.75
	c4.26,0,8.17,0,12.08,0c0,4,0,8.01,0,12.06c8.3,0,16.31,0,24.31,0c0-4.26,0-8.17,0-12.08c3.98,0,7.97,0,12.18,0
	C435.52,494.16,435.52,490.17,435.52,486.19z M435.52,278.68l0.14,0.14c0-4.02,0-8.03,0-12.2c-8.36,0-16.28,0-24.72,0
	c0,4.06,0,7.9,0,12.09c-4.26,0-7.99,0-11.76,0c0,8.41,0,16.43,0,24.82c4.1,0,7.83,0,11.93,0c0,4.11,0,7.85,0,11.66
	c8.4,0,16.42,0,24.81,0c0-4.09,0-7.82,0-11.93c4.11,0,7.85,0,11.69,0c0-8.4,0-16.43,0-24.59
	C443.35,278.68,439.43,278.68,435.52,278.68z M313.53,278.68l0.14,0.14c0-4.02,0-8.03,0-12.2c-8.36,0-16.28,0-24.72,0
	c0,4.06,0,7.9,0,12.09c-4.25,0-7.99,0-11.76,0c0,8.41,0,16.43,0,24.82c4.1,0,7.83,0,11.93,0c0,4.11,0,7.85,0,11.66
	c8.4,0,16.42,0,24.81,0c0-4.08,0-7.82,0-11.93c4.11,0,7.85,0,11.69,0c0-8.4,0-16.43,0-24.59
	C321.36,278.68,317.44,278.68,313.53,278.68z M277.18,364.13c0-4.17,0-8,0-12.25c4.31,0,8.03,0,11.73,0c0-8.34,0-16.24,0-24.57
	c-4.08,0-7.81,0-11.96,0c0-4.16,0-7.89,0-11.7c-8.34,0-16.23,0-24.56,0c0,4.04,0,7.77,0,11.92c-4.16,0-7.88,0-11.81,0
	c0,8.34,0,16.23,0,24.57c4,0,7.73,0,12.03,0c0,4.25,0,8.08,0,12.03C260.9,364.13,268.6,364.13,277.18,364.13z M350.26,315.34
	c0,4.29,0,8.14,0,12.04c8.27,0,16.29,0,24.16,0c0-4.22,0-8.08,0-12.04C366.28,315.34,358.46,315.34,350.26,315.34z"/>
<path class="st0" d="M472.33,364.44c0-3.91,0-7.82,0-12.05c3.93,0,7.64,0,11.61,0c0,3.75,0,7.45,0,11.9c-3.99,0-7.86,0-11.74,0
	C472.2,364.3,472.33,364.44,472.33,364.44z"/>
<path class="st0" d="M472.19,315.27c3.78,0,7.55,0,11.67,0c0,4.13,0,7.83,0,11.88c-3.59,0-7.29,0-11.55,0c0-4,0-8.01,0-12.02
	C472.31,315.13,472.19,315.27,472.19,315.27z"/>
<path class="st0" d="M130.54,413.05c0-3.99,0-7.99,0-12.2c-4.22,0-8.21,0-12.2,0c0-3.99,0-7.99,0-12.2c-4.22,0-8.21,0-12.2,0
	c0.08-1.62,0.22-3.24,0.22-4.86c0.01-33.2,0.01-66.4,0.01-99.6c0-1.6,0-3.19,0-5.02c3.97,0,7.58,0,11.71,0c0,3.75,0,7.59,0,11.79
	c4.24,0,7.97,0,12.22,0c0,4.19,0,8.03,0,12.23c4.24,0,7.97,0,12.23,0c0,4.19,0,8.03,0,12.23c4.24,0,7.98,0,12.23,0
	c0,4.19,0,8.03,0,12.23c4.24,0,7.98,0,12.08,0c0,4.1,0,7.83,0,12.09c4.19,0,8.02,0,12.23,0c0,4.24,0,7.98,0,12.23
	c4.19,0,8.03,0,12.23,0c0,4.24,0,7.98,0,12.23c4.19,0,8.03,0,12.23,0c0,4.24,0,7.98,0,12.23c4.19,0,8.03,0,12.08,0
	c0,8.19,0,15.86,0,24.06c-3.78,0-7.62,0-11.82,0c0,4.24,0,7.98,0,12.23c-4.19,0-8.03,0-12.26,0c0,4.53,0,8.55,0,12.57
	c0,0,0.14-0.14,0.14-0.14c-4.01,0-8.02,0-12.09,0c0,4.34,0,8.28,0,12.31c4.26,0,8.17,0,12.09,0l-0.14-0.14c0,3.92,0,7.84,0,12.27
	c3.93,0,7.76,0,12.02,0c0,12.34,0,24.16,0,36.55c-3.89,0-7.59,0-11.79,0c0,4.25,0,7.97,0,12c-4.22,0-7.92,0-12.1,0
	c0-3.9,0-7.75,0-11.86c-4.48,0-8.49,0-12.49,0c0-3.99,0-7.99,0-12.2c-4.22,0-8.21,0-12.2,0c0-3.99,0-7.99,0-12.2
	c-4.22,0-8.21,0-12.2,0c0-3.99,0-7.99,0-12.2c-4.22,0-8.21,0-12.2,0c0-8.17,0-16.34,0-24.52c3.91,0,7.81,0,12.07,0
	c0-3.92,0-7.87,0-12.09C138.55,413.05,134.55,413.05,130.54,413.05z"/>
<path class="st1" d="M228.23,437.45c-3.9,0-7.81,0-12.16,0c0,4.07,0,7.92,0,11.96c-3.91,0-7.38,0-11.3,0c0-3.78,0-7.62,0-12.09
	c-4.71,0-8.99,0-13.26,0c0,0,0.14,0.14,0.14,0.14c0-4.1,0-8.21,0-12.31c0,0-0.14,0.14-0.14,0.14c4.18,0,8.35,0,12.96,0
	c0-4.16,0-8,0-12.13c4.17,0,7.91,0,12.09,0c0-4.12,0-7.96,0-12.08c4,0,7.56,0,11.66,0C228.23,413.2,228.23,425.32,228.23,437.45z"/>
<path class="st1" d="M240.47,400.71c-3.63,0-7.27,0-11.19,0c0-3.95,0-7.79,0-12.04c3.73,0,7.46,0,11.19,0c0,0-0.14-0.14-0.14-0.14
	c0,4.1,0,8.21,0,12.31L240.47,400.71z"/>
<path class="st2" d="M277.18,364.13c-8.58,0-16.28,0-24.56,0c0-3.95,0-7.77,0-12.03c-4.3,0-8.03,0-12.03,0c0-8.34,0-16.23,0-24.57
	c3.92,0,7.65,0,11.81,0c0-4.15,0-7.88,0-11.92c8.33,0,16.22,0,24.56,0c0,3.81,0,7.54,0,11.7c4.15,0,7.88,0,11.96,0
	c0,8.33,0,16.23,0,24.57c-3.7,0-7.43,0-11.73,0C277.18,356.13,277.18,359.96,277.18,364.13z"/>
<path class="st2" d="M472.34,364.04c-8.58,0-16.28,0-24.56,0c0-3.95,0-7.77,0-12.03c-4.3,0-8.03,0-12.03,0c0-8.34,0-16.23,0-24.57
	c3.92,0,7.65,0,11.81,0c0-4.15,0-7.88,0-11.92c8.33,0,16.22,0,24.56,0c0,3.81,0,7.54,0,11.7c4.15,0,7.88,0,11.96,0
	c0,8.33,0,16.23,0,24.57c-3.7,0-7.43,0-11.73,0C472.34,356.04,472.34,359.87,472.34,364.04z"/>
<path d="M313.53,278.68c3.92,0,7.84,0,12.09,0c0,8.16,0,16.19,0,24.59c-3.85,0-7.59,0-11.69,0c0,4.1,0,7.84,0,11.93
	c-8.39,0-16.41,0-24.81,0c0-3.81,0-7.55,0-11.66c-4.1,0-7.84,0-11.93,0c0-8.39,0-16.41,0-24.82c3.77,0,7.51,0,11.76,0
	c0-4.2,0-8.04,0-12.09c8.44,0,16.36,0,24.72,0c0,4.16,0,8.18,0,12.2c-4,0-8,0-12.02,0c0,4.25,0,8.08,0,11.86c4.11,0,7.93,0,11.88,0
	C313.53,286.48,313.53,282.58,313.53,278.68z"/>
<path d="M435.52,278.68c3.92,0,7.84,0,12.09,0c0,8.16,0,16.19,0,24.59c-3.85,0-7.59,0-11.69,0c0,4.1,0,7.84,0,11.93
	c-8.39,0-16.41,0-24.81,0c0-3.81,0-7.55,0-11.66c-4.1,0-7.84,0-11.93,0c0-8.39,0-16.41,0-24.82c3.77,0,7.51,0,11.76,0
	c0-4.2,0-8.04,0-12.09c8.44,0,16.36,0,24.72,0c0,4.16,0,8.18,0,12.2c-4,0-8,0-12.02,0c0,4.25,0,8.08,0,11.86c4.11,0,7.94,0,11.88,0
	C435.52,286.48,435.52,282.58,435.52,278.68z"/>
<path d="M398.94,449.55c0,16.31,0,32.61,0,48.92l0.09-0.09c-3.91,0-7.82,0-12.08,0c0-16.15,0-32.3,0-48.75c4.06,0,8.07,0,12.08,0
	L398.94,449.55z"/>
<path d="M325.73,449.64c3.91,0,7.82,0,12.08,0c0,16.15,0,32.3,0,48.75c-4.06,0-8.07,0-12.07,0c0,0,0.09,0.09,0.09,0.09
	c0-16.31,0-32.61,0-48.92L325.73,449.64z"/>
<path d="M398.94,351.93c0,3.91,0,7.82,0,12.08c-8.01,0-16.02,0-24.33,0c0-4.06,0-8.07,0-12.08l-0.09,0.09c8.17,0,16.34,0,24.5,0
	L398.94,351.93z"/>
<path d="M398.94,498.47c8.16-0.01,16.32-0.01,24.48-0.02c0,0-0.09-0.09-0.09-0.09c0,3.91,0,7.82,0,12.08c-8,0-16.01,0-24.31,0
	c0-4.05,0-8.05,0-12.06C399.03,498.39,398.94,498.47,398.94,498.47z"/>
<path d="M301.33,498.45c8.16,0.01,16.32,0.01,24.49,0.02c0,0-0.09-0.09-0.09-0.09c0,3.91,0,7.81,0,12.06c-8,0-16.01,0-24.32,0
	c0-4.07,0-8.08,0-12.08L301.33,498.45z"/>
<path d="M447.74,461.76c0,8.05,0,16.1,0,24.43c-4.22,0-8.22,0-12.22,0l0.09,0.09c0-8.05,0-16.1,0-24.43c4.22,0,8.22,0,12.22,0
	L447.74,461.76z"/>
<path d="M289.24,486.18c-3.9,0-7.8,0-12.22,0c0-8.12,0-16.27,0-24.42l-0.09,0.09c3.9,0,7.8,0,12.22,0c0,8.12,0,16.27,0,24.42
	C289.16,486.27,289.24,486.18,289.24,486.18z"/>
<path d="M350.26,315.34c8.19,0,16.01,0,24.16,0c0,3.96,0,7.82,0,12.04c-7.87,0-15.89,0-24.16,0
	C350.26,323.49,350.26,319.64,350.26,315.34z"/>
<path d="M374.61,351.93c-8.16,0.01-16.32,0.01-24.48,0.02l0.09,0.09c0-3.91,0-7.82,0-12.08c8.01,0,16.01,0,24.31,0
	c0,4.05,0,8.05,0,12.06C374.53,352.01,374.61,351.93,374.61,351.93z"/>
<path d="M447.83,461.84c0-7.98,0-15.95,0-24.27c3.95,0,7.9,0,12.09,0c0,8.04,0,15.96,0,24.19c-4.16,0-8.17,0-12.17,0
	C447.74,461.76,447.83,461.84,447.83,461.84z"/>
<path d="M350.13,351.95c0,3.91,0,7.81,0,12.06c-8,0-16,0-24.31,0c0-4.07,0-8.08,0-12.08c0,0-0.09,0.09-0.09,0.09
	c8.16,0.01,16.32,0.01,24.48,0.02C350.21,352.03,350.13,351.95,350.13,351.95z"/>
<path d="M277.02,461.76c-3.91,0-7.82,0-12.07,0c0-8.03,0-16.05,0-24.3c3.97,0,7.83,0,11.98,0c0,8.23,0,16.31,0,24.38
	C276.93,461.84,277.02,461.76,277.02,461.76z"/>
<path d="M399.03,449.64c0-7.98,0-15.95,0-24.27c3.95,0,7.9,0,12.09,0c0,8.04,0,15.96,0,24.19c-4.16,0-8.17,0-12.17,0
	C398.94,449.55,399.03,449.64,399.03,449.64z"/>
<path d="M325.82,449.56c-3.91,0-7.82,0-12.07,0c0-8.03,0-16.05,0-24.3c3.97,0,7.83,0,11.98,0c0,8.23,0,16.31,0,24.38
	C325.73,449.64,325.82,449.56,325.82,449.56z"/>
<path d="M460.01,242.1c-3.91,0-7.82,0-12.06,0c0-3.96,0-7.91,0-12.09c3.97,0,7.82,0,11.98,0c0,4.16,0,8.17,0,12.18
	C459.92,242.18,460.01,242.1,460.01,242.1z"/>
<path d="M240.32,400.85c0-4.1,0-8.21,0-12.31c3.91,0,7.82,0,12.09,0c0,4.03,0,7.98,0,12.31
	C248.34,400.85,244.33,400.85,240.32,400.85z"/>
<path d="M399.03,352.01c0-3.91,0-7.82,0-12.07c3.95,0,7.91,0,12.09,0c0,3.97,0,7.83,0,11.98c-4.16,0-8.17,0-12.18,0
	C398.94,351.93,399.03,352.01,399.03,352.01z"/>
<path d="M325.82,351.93c-3.91,0-7.82,0-12.07,0c0-3.96,0-7.91,0-12.09c3.97,0,7.82,0,11.98,0c0,4.16,0,8.17,0,12.18
	C325.73,352.01,325.82,351.93,325.82,351.93z"/>
<path d="M301.42,498.37c-3.98,0-7.97,0-12.18,0c0-4.22,0-8.2,0-12.19c0,0-0.09,0.09-0.09,0.09c3.98,0,7.97,0,12.18,0
	c0,4.22,0,8.2,0,12.19C301.33,498.45,301.42,498.37,301.42,498.37z"/>
<path d="M435.52,486.19c0,3.99,0,7.97,0,12.18c-4.22,0-8.2,0-12.18,0c0,0,0.09,0.09,0.09,0.09c0-3.99,0-7.97,0-12.18
	c4.22,0,8.2,0,12.18,0C435.61,486.27,435.52,486.19,435.52,486.19z"/>
<path d="M252.64,254.39c0-3.91,0-7.82,0-12.07c3.96,0,7.91,0,12.09,0c0,3.97,0,7.83,0,11.98c-4.16,0-8.17,0-12.18,0
	C252.55,254.3,252.64,254.39,252.64,254.39z"/>
<path d="M191.66,425.15c0,4.1,0,8.21,0,12.31c-3.91,0-7.82,0-12.09,0c0-4.03,0-7.97,0-12.31
	C183.64,425.15,187.65,425.15,191.66,425.15z"/>
<path class="st1" d="M313.53,278.68c0,3.9,0,7.81,0,12c-3.95,0-7.78,0-11.88,0c0-3.78,0-7.61,0-11.86c4.03,0,8.02,0,12.02,0
	C313.67,278.82,313.53,278.68,313.53,278.68z"/>
<path class="st1" d="M435.52,278.68c0,3.9,0,7.81,0,12c-3.95,0-7.78,0-11.88,0c0-3.78,0-7.61,0-11.86c4.03,0,8.02,0,12.02,0
	C435.66,278.82,435.52,278.68,435.52,278.68z"/>
</svg>
